<?xml version="1.0" standalone="no"?>
<!DOCTYPE svg PUBLIC "-//W3C//DTD SVG 20010904//EN"
 "http://www.w3.org/TR/2001/REC-SVG-20010904/DTD/svg10.dtd">
<svg version="1.0" xmlns="http://www.w3.org/2000/svg"
 width="512.000000pt" height="512.000000pt" viewBox="0 0 512.000000 512.000000"
 preserveAspectRatio="xMidYMid meet">
<metadata>
Created by potrace 1.11, written by Peter Selinger 2001-2013
</metadata>
<g transform="translate(0.000000,512.000000) scale(0.100000,-0.100000)"
fill="#000000" stroke="none">
<path d="M393 5106 c-186 -45 -345 -207 -382 -388 -8 -38 -11 -677 -9 -2183
l3 -2130 22 -60 c67 -175 220 -306 393 -335 46 -8 684 -10 2180 -8 l2115 3 68
27 c86 35 141 73 205 143 60 66 106 156 122 240 8 44 10 633 8 2180 l-3 2120
-23 59 c-64 169 -213 300 -380 335 -82 17 -4248 14 -4319 -3z m3657 -876 c30
-16 40 -66 40 -196 0 -153 -24 -340 -95 -744 -227 -1291 -266 -1568 -286
-2020 -6 -140 -15 -267 -20 -281 -16 -42 -64 -62 -157 -67 -153 -8 -307 31
-375 96 -42 39 -75 111 -94 200 -34 164 -3 562 77 980 11 58 18 108 15 110 -8
9 -364 21 -622 21 l-261 1 -46 -187 c-88 -365 -129 -610 -146 -873 -14 -217
-15 -220 -55 -268 -68 -79 -211 -122 -404 -122 -102 0 -111 2 -139 25 -49 41
-57 95 -56 380 0 281 9 344 100 756 26 115 45 211 43 213 -2 3 -51 -2 -109 -9
-176 -23 -284 -29 -308 -16 -45 24 -18 113 61 198 86 93 246 185 404 233 l73
22 30 101 c60 200 173 525 232 670 33 81 58 150 56 152 -7 8 -240 -15 -321
-31 -177 -35 -287 -87 -434 -205 -111 -89 -137 -96 -176 -50 -57 68 -60 209
-7 318 126 256 668 440 1355 459 l190 6 42 -28 c23 -15 46 -38 52 -51 34 -74
-11 -299 -74 -373 -7 -8 -20 -53 -29 -100 -23 -116 -105 -432 -160 -617 -25
-84 -46 -155 -46 -158 0 -3 194 -4 431 -3 l432 3 43 165 c132 497 269 858 389
1025 88 124 221 242 296 263 19 6 35 11 37 11 2 1 12 -3 22 -9z"/>
</g>
</svg>
